<svg id="Layer_04" data-name="Layer 04" xmlns="http://www.w3.org/2000/svg" viewBox="75 0 262.76 143.3" width='200px' height='120px'>
  <defs>
    <style>
      .cls-1{fill:#DF7466;}.cls-2{fill:#A1CD5E;}
    </style>
  </defs>
  <path class="cls-1" d="M260.85,0H138.46q-21.11,0-33,9.4T93.57,34.91a29.7,29.7,0,0,0,8.82,21.87A37.21,37.21,0,0,0,118.12,66q6.72,2.12,21.1,3.65-13.23,3.64-19,7.67A27.67,27.67,0,0,0,108.91,94q-9,36.45-15.73,36.45-3.65,0-6-5.37c-1.6-3.59-2.4-8.44-2.4-14.58H78.22q0,32.81,24.17,32.8,10.36,0,16.59-7.48t6.24-21.3q0-22,6.14-31.46,7.09-10.74,25.51-10.74h11.51V127q0,7.49-8.44,7.49H145.36v7.29h68.29v-7.29H198.88q-5.56,0-7.86-1.92c-1.54-1.28-2.3-3.52-2.3-6.72V71.75H200.8q22.63,0,22.64,29.54h6.9V37.22h-6.9q0,13.43-5.85,20.43t-16.79,7H188.72V13.43q0-6.13,6.33-6.14h22.63q18.62,0,26.86,9.78,7.29,8.64,11.51,32h6.71Q261.8,24.56,260.85,0ZM168.38,65H151.5q-18.8,0-27.34-6.81t-8.53-22.16q0-18.6,10-24.55,7.1-4.22,26.28-4.22c5.76,0,9.08.06,10,.19q6.52,1,6.52,6.72Z"/>
  <!-- <path class="cls-2" d="M6.14,114q8.06,20.72,24.75,20.72,12.27,0,19.56-10.17t7.29-28.39q0-19.76-6.9-30.5T31.27,54.86a18.07,18.07,0,0,0-10,2.5c-2.55,1.66-3.83,3.52-3.83,5.56.06.26.12.51.19.77q1.92,2.69,2.68,3.84a11.47,11.47,0,0,1,1.92,6.13,9.79,9.79,0,0,1-3.07,7.49,10,10,0,0,1-14.77-.77,12.79,12.79,0,0,1-3.26-8.83q0-9.19,8.44-16.11Q18.61,48,31.65,48q19.18,0,31.56,13.71T75.58,97.84q0,20.91-11.89,33.18T33.19,143.3a30.35,30.35,0,0,1-20.34-7.19Q4.42,128.91,0,115.68Z"/> -->
</svg>
