<svg id="Layer_08" data-name="Layer 08" xmlns="http://www.w3.org/2000/svg" viewBox="0 0 138.87 132.2" width='200px' height='200px' style="margin: 100px">
  <defs>
    <style>
      .cls-1{fill:#a1cd5e;}
      .cls-2{fill:#df7466;}
      .cls-3{fill:#5d861f;}
    </style>
  </defs>
  <title>
    logo2
  </title>
  <path class="cls-1" d="M0,72.71,15.78,84.2l28.63-9.74Q42.87,78.75,41.3,83q-13,23.67-26.11,47.34l18.12-13.05,38-51,46.36-11.49c3.57-1.31,7-4.59,6.9-7.79s-3.79-6.31-9-5.85L98,42.13c-2.66.14-3.51.19-5.31-.32s-4.55-1.56-6.73-2.3a16.82,16.82,0,0,0-6-1.11c-2.16,0-4.85.49-14.08,3.71s-25,9.2-47.38,21.57L.6,54.7"/>
  <path class="cls-2" d="M136.78,50.05l-19.12,4.74L99.31,59.34c-1.61.44-2.13,1.29.19,4.12,2.73,4.65,2,9.12-.61,17.61C96,90.65,90.82,105.37,88,113.35s-3.31,9.22-4.28,11-2.41,4.18-4.79,4.18c-4,0-4-3-8.27-32.56-.15-1,.19-1.68,1-1.87C83.23,91.32,88,87.37,90.94,82.36a33.85,33.85,0,0,0,3.88-20.63c0-.84.5-1.4,1.64-1.69L71.3,66.28l-7.18,9.64a9.15,9.15,0,0,1,5.35-3.52l11.14-2.66q5.07-1.21,3.73,1.74-2.2,4.92-4.42,9.82Q78,85.59,72.64,86.61l-17,3.28q-2.18.42-.41-2L48,97.53c1.57-.13,3.08-.27,4.53-.41a2,2,0,0,1,2.28,1.23Q67,128.56,60,128.56c-2,0-2,.59-2,1.13v1.53c0,.49,0,1,2,1h41.46c1.63,0,1.63-1.15,1.63-2s0-1.59-1.63-1.59c-3-.56-4-3.53-4.36-5.59s-.23-3.19,1.25-7.68,4.26-12.3,6-16.56,2.37-4.94,3.11-5.44,1.38-.74,11.6-4q4.55-1.45,6.1-3.93,2.05-3.3,4.12-6.59c1-1.68.44-2.28-1.81-1.82l-17.3,3.55c2.58-8.69,3.77-10.4,4.91-11.53s2-1.58,13.26-5.56A11.62,11.62,0,0,0,134,59.69c.53-.72,1.34-2.12,1.69-2.66l1.51-2.42Q140.72,49.08,136.78,50.05Z"/>
  <path class="cls-3" d="M71,40.39,60.41,0C54.86,2.56,54,4.7,48.54,48.87"/></svg>
